Coordinates
version=1
nRows=24
nColumns=24
inDegrees=yes

Units are S.I. units (second, meters, Newtons, ...)
Angles are in degrees.

endheader
time	pelvis_tilt	pelvis_list	pelvis_rotation	pelvis_tx	pelvis_ty	pelvis_tz	hip_flexion_r	hip_adduction_r	hip_rotation_r	knee_angle_r	ankle_angle_r	subtalar_angle_r	mtp_angle_r	hip_flexion_l	hip_adduction_l	hip_rotation_l	knee_angle_l	ankle_angle_l	subtalar_angle_l	mtp_angle_l	lumbar_extension	lumbar_bending	lumbar_rotation
      6.25000000	     10.16516578	      3.51261482	    -10.77921910	      2.00228497	      0.75302099	     -0.23796472	     13.52330939	      0.39276562	      6.73388704	    -71.53813173	     -6.57410332	    -16.67362349	      0.00000000	     -9.78334030	     10.23371259	     -3.18379791	     -2.77626731	     10.29923202	    -15.64826068	      0.00000000	    -20.28148739	     -6.11853011	      5.75460774
      6.26000000	     10.23757527	      3.22182868	     -9.75800197	      2.01201133	      0.75352091	     -0.23877249	     14.80436901	      0.89894459	      5.87344938	    -70.61339307	     -3.50842616	    -17.33615259	      0.00000000	    -11.12266325	      9.91836825	     -2.23748285	     -2.19880845	     10.75117651	    -15.40140650	      0.00000000	    -20.66064601	     -5.54797498	      4.46369034
      6.27000000	     10.34873685	      2.94972441	     -8.78224160	      2.02166049	      0.75384027	     -0.23948940	     15.95506845	      1.31134980	      5.07704969	    -69.31288542	     -1.04063406	    -18.19983303	      0.00000000	    -12.43382513	      9.59347471	     -1.29520105	     -1.71082777	     11.22120331	    -15.27143705	      0.00000000	    -21.09154314	     -5.01568504	      3.26172123
      6.28000000	     10.39720216	      2.75077133	     -7.85315919	      2.03125311	      0.75386635	     -0.24010992	     17.08636997	      1.58298417	      4.34340434	    -67.65205970	      0.71107525	    -19.39095475	      0.00000000	    -13.55577838	      9.30304549	     -0.45980946	     -1.39390174	     11.80303011	    -15.04206172	      0.00000000	    -21.43971694	     -4.56107144	      2.15961561
      6.29000000	     10.67770883	      2.48084967	     -7.07666398	      2.04079381	      0.75393626	     -0.24046889	     17.79733629	      1.90168153	      3.79117254	    -65.56323020	      1.89667149	    -20.81308563	      0.00000000	    -14.96729931	      8.96213411	      0.42992902	     -1.00035763	     12.24298653	    -15.16580757	      0.00000000	    -22.08230179	     -4.10655654	      1.24222519
      6.30000000	     10.84880510	      2.30588777	     -6.36305026	      2.05034796	      0.75366548	     -0.24069048	     18.49881272	      2.10791068	      3.36019686	    -63.11947528	      2.41516194	    -22.57254337	      0.00000000	    -16.18007662	      8.68442853	      1.28450597	     -0.72171085	     12.75562773	    -15.29769506	      0.00000000	    -22.57581808	     -3.75791714	      0.39109264
      6.31000000	     10.92649914	      2.20355070	     -5.71916465	      2.05995440	      0.75308816	     -0.24078302	     19.15011420	      2.21311788	      3.03500615	    -60.31292822	      2.35698814	    -24.65856422	      0.00000000	    -17.26633989	      8.45883129	      2.18253587	     -0.47666706	     13.18336678	    -15.58669289	      0.00000000	    -22.93980325	     -3.49812504	     -0.30905795
      6.32000000	     11.09366839	      2.12633917	     -5.16384415	      2.06961972	      0.75243302	     -0.24073470	     19.51160206	      2.24893564	      2.81090444	    -57.10527474	      2.17222689	    -26.59273997	      0.00000000	    -18.40613314	      8.26551587	      2.85340319	     -0.30337952	     13.73543281	    -15.65677249	      0.00000000	    -23.40779406	     -3.30063979	     -0.87744590
      6.33000000	     11.06022220	      2.14439529	     -4.65195057	      2.07940930	      0.75138726	     -0.24061606	     19.91939349	      2.18749787	      2.72110921	    -53.55129417	      1.57140682	    -28.67793016	      0.00000000	    -19.31455121	      8.14465941	      3.57281688	     -0.15834073	     14.24433509	    -15.79567394	      0.00000000	    -23.60822881	     -3.19793302	     -1.37686490
      6.34000000	     10.99252719	      2.22553704	     -4.16824787	      2.08929702	      0.75015233	     -0.24047003	     20.16807839	      2.01895731	      2.70733723	    -49.62715821	      1.03957805	    -30.37138454	      0.00000000	    -20.13538360	      8.08242810	      4.25852223	     -0.11197313	     14.75788585	    -15.94692013	      0.00000000	    -23.76382514	     -3.16474224	     -1.80518493
      6.35000000	     10.86301654	      2.35733363	     -3.70049031	      2.09933486	      0.74871402	     -0.24032328	     20.27731611	      1.76815079	      2.78182695	    -45.34510013	      0.68085922	    -31.49073350	      0.00000000	    -20.87426537	      8.06241013	      4.90317923	     -0.10995619	     15.27749093	    -16.01845634	      0.00000000	    -23.82972311	     -3.17714849	     -2.19623660
      6.36000000	     10.63003740	      2.59208136	     -3.21312853	      2.10951374	      0.74701517	     -0.24025880	     20.32396405	      1.35789731	      2.89532125	    -40.77904174	      0.74174085	    -31.61633009	      0.00000000	    -21.44005580	      8.13571702	      5.51318798	     -0.23430793	     15.87848486	    -15.96090087	      0.00000000	    -23.75605546	     -3.26829680	     -2.63216607
      6.37000000	     10.36848291	      2.84377399	     -2.73647347	      2.11985296	      0.74514979	     -0.24017025	     20.17142991	      0.95651757	      3.25885496	    -35.89477900	      0.78948650	    -31.37495567	      0.00000000	    -21.95956448	      8.21929257	      6.10530359	     -0.41700263	     16.44759161	    -15.90995120	      0.00000000	    -23.63696506	     -3.38202951	     -3.04439026
      6.38000000	     10.12085495	      3.14789069	     -2.25219950	      2.13036486	      0.74314125	     -0.24012731	     19.80767251	      0.50520973	      3.91225734	    -30.80174507	      0.89959690	    -30.53460168	      0.00000000	    -22.48506583	      8.34950354	      6.69600009	     -0.64855820	     16.98492714	    -15.85360436	      0.00000000	    -23.51706388	     -3.52833921	     -3.50464952
      6.39000000	      9.88700010	      3.52430653	     -1.75267790	      2.14105004	      0.74096906	     -0.24013877	     19.30612115	     -0.06451323	      4.74430603	    -25.66539492	      1.41255681	    -28.83976304	      0.00000000	    -22.98412731	      8.54284123	      7.30931129	     -0.99687210	     17.48776262	    -15.77700444	      0.00000000	    -23.40374696	     -3.73661085	     -3.99584530
      6.40000000	      9.59559291	      3.98002001	     -1.23797265	      2.15194668	      0.73854978	     -0.24020652	     18.81899189	     -0.75843638	      5.79912451	    -20.68958905	      2.03747745	    -26.55640507	      0.00000000	    -23.41047600	      8.80266490	      8.02425871	     -1.42193698	     18.08888359	    -15.66250639	      0.00000000	    -23.19915479	     -4.01554790	     -4.52342534
      6.41000000	      9.40854170	      4.43569228	     -0.71062920	      2.16304174	      0.73612133	     -0.24027461	     18.13373333	     -1.47773636	      7.30918148	    -15.90296350	      2.29476736	    -24.63926741	      0.00000000	    -23.94272744	      9.04124775	      8.76578631	     -1.91626360	     18.62487858	    -15.51877920	      0.00000000	    -23.11708796	     -4.28054377	     -5.11621333
      6.42000000	      9.17966880	      4.96564385	     -0.21897604	      2.17433353	      0.73352175	     -0.24029658	     17.55995439	     -2.30815506	      9.26674173	    -11.63114392	      2.50619734	    -22.97131805	      0.00000000	    -24.42714971	      9.35098871	      9.56606796	     -2.46925658	     19.17933559	    -15.37855037	      0.00000000	    -22.97563697	     -4.64312786	     -5.72372124
      6.43000000	      9.07939294	      5.42077884	      0.26512114	      2.18582511	      0.73106574	     -0.24028927	     16.94170174	     -3.12659703	     11.24116345	     -7.99273359	      2.87888782	    -21.32684190	      0.00000000	    -25.05455469	      9.56201211	     10.35821542	     -3.06235940	     19.62947326	    -15.18857776	      0.00000000	    -22.99005977	     -4.92093445	     -6.28560210
      6.44000000	      9.09550186	      5.73066224	      0.72380892	      2.19750371	      0.72884554	     -0.24022301	     16.39659662	     -3.80693532	     12.70407773	     -5.19818624	      3.80572752	    -19.09297152	      0.00000000	    -25.83387784	      9.60517450	     11.20417382	     -3.63778460	     19.88622594	    -15.08487614	      0.00000000	    -23.14345803	     -5.04193232	     -6.76511850
      6.45000000	      9.07177521	      5.94595260	      1.11440268	      2.20937970	      0.72673072	     -0.23996790	     15.95228288	     -4.32497482	     14.55536781	     -3.05999182	      4.39544654	    -17.97051335	      0.00000000	    -26.51865658	      9.56169231	     11.85752039	     -4.31486478	     20.13079340	    -14.84408801	      0.00000000	    -23.23596792	     -5.10355366	     -7.16135732
      6.46000000	      9.05290437	      5.99299495	      1.45410382	      2.22145699	      0.72483346	     -0.23954850	     15.61471605	     -4.57844501	     16.22770029	     -1.67861274	      5.04490891	    -17.16436658	      0.00000000	    -27.15453019	      9.35903539	     12.38521232	     -5.08893148	     20.28524934	    -14.62799776	      0.00000000	    -23.31721494	     -5.01254537	     -7.46772051
      6.47000000	      9.13997792	      5.87466734	      1.72996002	      2.23381048	      0.72329960	     -0.23894109	     15.16884397	     -4.55870295	     17.75386500	     -0.86841279	      5.42740499	    -16.88533936	      0.00000000	    -27.90217091	      8.98691152	     12.67937184	     -5.85388199	     20.26848841	    -14.24349287	      0.00000000	    -23.47755517	     -4.76942403	     -7.62382135
      6.48000000	      9.11192505	      5.63848859	      1.97920047	      2.24642534	      0.72184969	     -0.23813487	     14.81313002	     -4.32283314	     19.71767744	     -0.54840614	      4.98124425	    -18.22423787	      0.00000000	    -28.34965537	      8.51829326	     12.51109618	     -6.92671635	     20.45195634	    -13.38437357	      0.00000000	    -23.45235235	     -4.44053467	     -7.74348303
